<svg width="24" height="24" viewBox="0 0 24 24" fill="none" xmlns="http://www.w3.org/2000/svg">
    <path
        d="M12 1.49998C6.20156 1.49998 1.5 6.20155 1.5 12C1.5 17.7984 6.20156 22.5 12 22.5C17.7984 22.5 22.5 17.7984 22.5 12C22.5 6.20155 17.7984 1.49998 12 1.49998ZM12 20.7187C7.18594 20.7187 3.28125 16.814 3.28125 12C3.28125 7.18592 7.18594 3.28123 12 3.28123C16.8141 3.28123 20.7188 7.18592 20.7188 12C20.7188 16.814 16.8141 20.7187 12 20.7187Z"
        fill="#B9B7B7" />
    <path
        d="M16.8608 11.6979L9.92091 6.65882C9.86526 6.61802 9.79936 6.59347 9.73057 6.58792C9.66178 6.58237 9.5928 6.59603 9.53132 6.62738C9.46984 6.65873 9.41827 6.70653 9.38236 6.76547C9.34645 6.8244 9.32761 6.89215 9.32795 6.96116V17.0393C9.32795 17.3463 9.67482 17.5198 9.92091 17.3417L16.8608 12.3026C16.9087 12.2681 16.9477 12.2226 16.9746 12.1701C17.0015 12.1175 17.0156 12.0593 17.0156 12.0002C17.0156 11.9412 17.0015 11.883 16.9746 11.8304C16.9477 11.7778 16.9087 11.7324 16.8608 11.6979ZM10.8233 14.8385V9.16195L14.7303 12.0002L10.8233 14.8385Z"
        fill="#B9B7B7" />
</svg>