<svg width="35" height="34" viewBox="0 0 35 34" fill="none" xmlns="http://www.w3.org/2000/svg">
    <path
        d="M16.4484 5.04688H18.496C18.678 5.04688 18.769 5.13542 18.769 5.3125V28.6875C18.769 28.8646 18.678 28.9531 18.496 28.9531H16.4484C16.2664 28.9531 16.1754 28.8646 16.1754 28.6875V5.3125C16.1754 5.13542 16.2664 5.04688 16.4484 5.04688Z"
        fill="#B9B7B7" />
    <path
        d="M6.00607 15.7383H28.9384C29.1204 15.7383 29.2114 15.8268 29.2114 16.0039V17.9961C29.2114 18.1732 29.1204 18.2617 28.9384 18.2617H6.00607C5.82406 18.2617 5.73306 18.1732 5.73306 17.9961V16.0039C5.73306 15.8268 5.82406 15.7383 6.00607 15.7383Z"
        fill="#B9B7B7" />
</svg>