<svg width="24" height="24" viewBox="0 0 24 24" fill="none" xmlns="http://www.w3.org/2000/svg">
    <path
        d="M3.1875 12.9372H4.67813C4.78125 12.9372 4.86563 12.8529 4.86563 12.7497V6.76615H17.2547V8.46771C17.2547 8.51224 17.2688 8.55443 17.2969 8.58958C17.3127 8.60983 17.3323 8.62674 17.3547 8.63936C17.377 8.65198 17.4017 8.66004 17.4272 8.66309C17.4526 8.66614 17.4785 8.66412 17.5032 8.65713C17.5279 8.65015 17.551 8.63834 17.5711 8.6224L20.9297 5.98568C21.0305 5.86849 21.0141 5.74427 20.9297 5.6763L17.5711 3.04193C17.5365 3.01428 17.4935 2.99938 17.4492 2.99974C17.3414 2.99974 17.2523 3.0888 17.2523 3.19661V4.89818H4.68047C3.75469 4.89818 3 5.65286 3 6.58099V12.7497C3 12.8529 3.08437 12.9372 3.1875 12.9372ZM20.8125 11.0622H19.3219C19.2188 11.0622 19.1344 11.1466 19.1344 11.2497V17.2333H6.74531V15.5318C6.74531 15.4872 6.73125 15.4451 6.70312 15.4099C6.68734 15.3897 6.66769 15.3727 6.64534 15.3601C6.62298 15.3475 6.59834 15.3394 6.57285 15.3364C6.54736 15.3333 6.52151 15.3354 6.49681 15.3423C6.4721 15.3493 6.44903 15.3611 6.42891 15.3771L3.07031 18.0138C2.96953 18.131 2.98594 18.2552 3.07031 18.3232L6.42891 20.9576C6.46406 20.9857 6.50625 20.9997 6.55078 20.9997C6.65859 20.9997 6.74766 20.9107 6.74766 20.8029V19.1013H19.3242C20.25 19.1013 21.0047 18.3466 21.0047 17.4185V11.2497C21 11.1466 20.9156 11.0622 20.8125 11.0622Z"
        fill="#B9B7B7" />
</svg>