<svg width="58" height="57" viewBox="0 0 58 57" fill="none" xmlns="http://www.w3.org/2000/svg">
    <path
        d="M19.6883 29.4435L41.393 46.1995C42.2001 46.8229 43.3867 46.2607 43.3867 45.256V11.7434C43.3867 10.7387 42.2001 10.1771 41.393 10.8005L19.6883 27.5565C19.5426 27.6686 19.4248 27.8118 19.3438 27.9753C19.2628 28.1387 19.2207 28.3182 19.2207 28.5C19.2207 28.6818 19.2628 28.8613 19.3438 29.0247C19.4248 29.1882 19.5426 29.3314 19.6883 29.4435V29.4435ZM18.6914 48.0938H15.0664C14.9462 48.0938 14.831 48.0468 14.746 47.9633C14.661 47.8798 14.6133 47.7665 14.6133 47.6484V9.35156C14.6133 9.23346 14.661 9.12019 14.746 9.03668C14.831 8.95317 14.9462 8.90625 15.0664 8.90625H18.6914C18.8116 8.90625 18.9268 8.95317 19.0118 9.03668C19.0968 9.12019 19.1445 9.23346 19.1445 9.35156V47.6484C19.1445 47.7665 19.0968 47.8798 19.0118 47.9633C18.9268 48.0468 18.8116 48.0938 18.6914 48.0938Z"
        fill="#B9B7B7" />
</svg>