<svg width="40" height="40" viewBox="0 0 30 41" fill="none" xmlns="http://www.w3.org/2000/svg">
    <path
        d="M24.7087 21.4871L2.07874 39.0181C1.23721 39.6704 0 39.0822 0 38.031V2.96842C0 1.91722 1.23721 1.32959 2.07874 1.98186L24.7087 19.5129C24.8605 19.6302 24.9833 19.78 25.0678 19.951C25.1522 20.122 25.1961 20.3098 25.1961 20.5C25.1961 20.6902 25.1522 20.878 25.0678 21.049C24.9833 21.22 24.8605 21.3699 24.7087 21.4871V21.4871ZM25.748 41H29.5276C29.6529 41 29.773 40.9509 29.8616 40.8635C29.9502 40.7762 30 40.6577 30 40.5341V0.465909C30 0.342342 29.9502 0.223836 29.8616 0.136461C29.773 0.0490864 29.6529 0 29.5276 0H25.748C25.6227 0 25.5026 0.0490864 25.414 0.136461C25.3254 0.223836 25.2756 0.342342 25.2756 0.465909V40.5341C25.2756 40.6577 25.3254 40.7762 25.414 40.8635C25.5026 40.9509 25.6227 41 25.748 41Z"
        fill="#B9B7B7" />
</svg>