<svg width="24" height="24" viewBox="0 0 44 36" fill="none" xmlns="http://www.w3.org/2000/svg">
    <path
        d="M38.1627 1.98131C32.4591 -1.61869 25.416 0.0613084 21.6136 4.18131C17.8111 0.0613084 10.768 -1.63869 5.06439 1.98131C2.03974 3.90131 0.138528 7.14131 0.00889998 10.5613C-0.293565 18.3213 7.13844 24.5413 18.4809 34.0813L18.6969 34.2613C20.3389 35.6413 22.8666 35.6413 24.5086 34.2413L24.7462 34.0413C36.0887 24.5213 43.4991 18.3013 43.2182 10.5413C43.0886 7.14131 41.1874 3.90131 38.1627 1.98131ZM21.8296 31.1013L21.6136 31.3013L21.3975 31.1013C11.1137 22.4813 4.32983 16.7813 4.32983 11.0013C4.32983 7.00131 7.57053 4.00131 11.8915 4.00131C15.2186 4.00131 18.4593 5.98131 19.6043 8.72131H23.6444C24.7678 5.98131 28.0085 4.00131 31.3357 4.00131C35.6566 4.00131 38.8973 7.00131 38.8973 11.0013C38.8973 16.7813 32.1134 22.4813 21.8296 31.1013Z"
        fill="black" />
    <path
        d="M38.1627 1.98131C32.4591 -1.61869 25.416 0.0613084 21.6136 4.18131C17.8111 0.0613084 10.768 -1.63869 5.06439 1.98131C2.03974 3.90131 0.138528 7.14131 0.00889998 10.5613C-0.293565 18.3213 7.13844 24.5413 18.4809 34.0813L18.6969 34.2613C20.3389 35.6413 22.8666 35.6413 24.5086 34.2413L24.7462 34.0413C36.0887 24.5213 43.4991 18.3013 43.2182 10.5413C43.0886 7.14131 41.1874 3.90131 38.1627 1.98131ZM21.8296 31.1013L21.6136 31.3013L21.3975 31.1013C11.1137 22.4813 4.32983 16.7813 4.32983 11.0013C4.32983 7.00131 7.57053 4.00131 11.8915 4.00131C15.2186 4.00131 18.4593 5.98131 19.6043 8.72131H23.6444C24.7678 5.98131 28.0085 4.00131 31.3357 4.00131C35.6566 4.00131 38.8973 7.00131 38.8973 11.0013C38.8973 16.7813 32.1134 22.4813 21.8296 31.1013Z"
        fill="#A5A2A2" />
</svg>