<svg width="60" height="58" viewBox="0 0 60 58" fill="none" xmlns="http://www.w3.org/2000/svg">
    <path
        d="M29.5087 3.62494C15.2499 3.62494 3.68848 14.987 3.68848 28.9999C3.68848 43.0128 15.2499 54.3749 29.5087 54.3749C43.7674 54.3749 55.3288 43.0128 55.3288 28.9999C55.3288 14.987 43.7674 3.62494 29.5087 3.62494ZM29.5087 50.0703C17.6706 50.0703 8.06868 40.6339 8.06868 28.9999C8.06868 17.366 17.6706 7.92963 29.5087 7.92963C41.3467 7.92963 50.9486 17.366 50.9486 28.9999C50.9486 40.6339 41.3467 50.0703 29.5087 50.0703Z"
        fill="#B9B7B7" />
    <path
        d="M41.4616 28.2699L24.396 16.0921C24.2592 15.9935 24.0971 15.9342 23.928 15.9208C23.7588 15.9074 23.5892 15.9404 23.438 16.0161C23.2868 16.0919 23.16 16.2074 23.0717 16.3499C22.9834 16.4923 22.9371 16.656 22.9379 16.8228V41.1783C22.9379 41.9203 23.7909 42.3395 24.396 41.909L41.4616 29.7312C41.5794 29.6478 41.6754 29.538 41.7415 29.411C41.8077 29.2839 41.8422 29.1433 41.8422 29.0006C41.8422 28.8578 41.8077 28.7172 41.7415 28.5901C41.6754 28.4631 41.5794 28.3533 41.4616 28.2699ZM26.615 35.8597V22.1414L36.2226 29.0006L26.615 35.8597Z"
        fill="#B9B7B7" />
</svg>