<svg width="24" height="24" viewBox="0 0 48 48" fill="none" xmlns="http://www.w3.org/2000/svg">
    <path
        d="M6.375 25.8745H9.35625C9.5625 25.8745 9.73125 25.7058 9.73125 25.4995V13.5323H34.5094V16.9355C34.5094 17.0245 34.5375 17.1089 34.5938 17.1792C34.6253 17.2197 34.6646 17.2535 34.7093 17.2788C34.754 17.304 34.8033 17.3201 34.8543 17.3262C34.9053 17.3323 34.957 17.3283 35.0064 17.3143C35.0558 17.3003 35.1019 17.2767 35.1422 17.2448L41.8594 11.9714C42.0609 11.737 42.0281 11.4886 41.8594 11.3526L35.1422 6.0839C35.073 6.02861 34.987 5.99881 34.8984 5.99952C34.6828 5.99952 34.5047 6.17765 34.5047 6.39327V9.7964H9.36094C7.50937 9.7964 6 11.3058 6 13.162V25.4995C6 25.7058 6.16875 25.8745 6.375 25.8745ZM41.625 22.1245H38.6438C38.4375 22.1245 38.2688 22.2933 38.2688 22.4995V34.4667H13.4906V31.0636C13.4906 30.9745 13.4625 30.8901 13.4062 30.8198C13.3747 30.7793 13.3354 30.7455 13.2907 30.7203C13.246 30.695 13.1967 30.6789 13.1457 30.6728C13.0947 30.6667 13.043 30.6708 12.9936 30.6847C12.9442 30.6987 12.8981 30.7223 12.8578 30.7542L6.14062 36.0276C5.93906 36.262 5.97188 36.5105 6.14062 36.6464L12.8578 41.9151C12.9281 41.9714 13.0125 41.9995 13.1016 41.9995C13.3172 41.9995 13.4953 41.8214 13.4953 41.6058V38.2026H38.6484C40.5 38.2026 42.0094 36.6933 42.0094 34.837V22.4995C42 22.2933 41.8313 22.1245 41.625 22.1245Z"
        fill="#A5A2A2" />
    <path d="M25.5429 18V28.1818H23.3908V20.0433H23.3311L21 21.505V19.5959L23.5199 18H25.5429Z" fill="#A5A2A2" />
</svg>