<svg width="20" height="20" viewBox="0 0 38 31" fill="none" xmlns="http://www.w3.org/2000/svg">
    <path
        d="M15.0672 10.0169L4.17348 1.35625C3.22302 0.600625 1.68767 0.600625 0.737214 1.35625C-0.213243 2.11187 -0.213243 3.3325 0.737214 4.08813L11.6065 12.7294L15.0672 10.0169ZM26.6676 1.64687L29.5677 3.9525L0.712843 26.8925C-0.237614 27.6481 -0.237614 28.8688 0.712843 29.6244C1.6633 30.38 3.19865 30.38 4.14911 29.6244L33.0284 6.70375L35.9285 9.00937C36.684 9.61 38 9.18375 38 8.31187V0.96875C38 0.42625 37.4638 0 36.7815 0H27.545C26.4483 0 25.9121 1.04625 26.6676 1.64687ZM25.4004 18.2319L21.9641 20.9637L29.5921 27.0281L26.6676 29.3531C25.9121 29.9537 26.4483 31 27.545 31H36.7815C37.4638 31 38 30.5738 38 30.0312V22.6881C38 21.8163 36.684 21.39 35.9285 22.01L33.0284 24.3156L25.4004 18.2319Z"
        fill="#A5A2A2" />
</svg>