<svg width="32" height="32" viewBox="0 0 32 32" fill="none" xmlns="http://www.w3.org/2000/svg">
    <path
        d="M12.5 9.9292H14.8094V20.5011C14.8094 20.6386 14.9219 20.7511 15.0594 20.7511H16.9344C17.0719 20.7511 17.1844 20.6386 17.1844 20.5011V9.9292H19.5C19.7094 9.9292 19.825 9.68857 19.6969 9.52607L16.1969 5.09482C16.1735 5.06494 16.1436 5.04078 16.1095 5.02416C16.0754 5.00754 16.0379 4.9989 16 4.9989C15.9621 4.9989 15.9246 5.00754 15.8905 5.02416C15.8564 5.04078 15.8265 5.06494 15.8031 5.09482L12.3031 9.52295C12.175 9.68857 12.2906 9.9292 12.5 9.9292ZM27.4375 19.5636H25.5625C25.425 19.5636 25.3125 19.6761 25.3125 19.8136V24.6261H6.6875V19.8136C6.6875 19.6761 6.575 19.5636 6.4375 19.5636H4.5625C4.425 19.5636 4.3125 19.6761 4.3125 19.8136V26.0011C4.3125 26.5542 4.75937 27.0011 5.3125 27.0011H26.6875C27.2406 27.0011 27.6875 26.5542 27.6875 26.0011V19.8136C27.6875 19.6761 27.575 19.5636 27.4375 19.5636Z"
        fill="#B9B7B7" />
</svg>